<svg width="29" height="29" viewBox="0 0 29 29" fill="none" xmlns="http://www.w3.org/2000/svg">
<circle cx="14.5" cy="14.5" r="14.5" fill="black" fill-opacity="0.3"/>
<path d="M14.4998 4.91675C9.21559 4.91675 4.9165 9.21583 4.9165 14.5001C4.9165 19.7843 9.21559 24.0834 14.4998 24.0834C19.7841 24.0834 24.0832 19.7843 24.0832 14.5001C24.0832 9.21583 19.7841 4.91675 14.4998 4.91675ZM14.4998 22.1667C10.2726 22.1667 6.83317 18.7273 6.83317 14.5001C6.83317 10.2729 10.2726 6.83341 14.4998 6.83341C18.727 6.83341 22.1665 10.2729 22.1665 14.5001C22.1665 18.7273 18.727 22.1667 14.4998 22.1667Z" fill="white"/>
<path d="M13.5415 13.5416H15.4582V19.2916H13.5415V13.5416ZM13.5415 9.70825H15.4582V11.6249H13.5415V9.70825Z" fill="white"/>
</svg>
