<svg width="31" height="31" viewBox="0 0 31 31" fill="none" xmlns="http://www.w3.org/2000/svg">
<path d="M26.2198 26.1948C23.3221 23.5209 19.5367 22.0149 15.594 21.9675C11.6513 21.9202 7.83082 23.3348 4.8697 25.9384L3.52979 24.4181C6.8665 21.4832 11.172 19.8881 15.6155 19.9405C20.0589 19.9929 24.3256 21.6891 27.5922 24.7019L26.2198 26.1948Z" fill="#C7C7C7"/>
<path d="M15.4009 8.87033C16.3951 8.87033 17.3671 9.16518 18.1938 9.71757C19.0205 10.27 19.6649 11.0551 20.0454 11.9737C20.4258 12.8923 20.5254 13.9031 20.3314 14.8782C20.1374 15.8534 19.6587 16.7491 18.9556 17.4522C18.2525 18.1553 17.3568 18.6341 16.3816 18.828C15.4064 19.022 14.3957 18.9224 13.4771 18.542C12.5585 18.1615 11.7733 17.5171 11.221 16.6904C10.6686 15.8637 10.3738 14.8918 10.3738 13.8975C10.3754 12.5647 10.9055 11.287 11.8479 10.3445C12.7903 9.40211 14.0681 8.87194 15.4009 8.87033ZM15.4009 6.84326C14.0057 6.84326 12.6418 7.25699 11.4818 8.03211C10.3217 8.80724 9.41756 9.90896 8.88365 11.1979C8.34973 12.4869 8.21004 13.9053 8.48223 15.2737C8.75442 16.6421 9.42625 17.899 10.4128 18.8856C11.3993 19.8721 12.6563 20.544 14.0247 20.8161C15.3931 21.0883 16.8114 20.9486 18.1004 20.4147C19.3894 19.8808 20.4911 18.9767 21.2662 17.8166C22.0414 16.6565 22.4551 15.2927 22.4551 13.8975C22.4551 12.0266 21.7119 10.2323 20.3889 8.9094C19.066 7.58648 17.2718 6.84326 15.4009 6.84326Z" fill="#C7C7C7"/>
<path d="M15.5 2.02707C18.1647 2.02707 20.7696 2.81725 22.9852 4.29768C25.2008 5.7781 26.9277 7.88229 27.9474 10.3441C28.9671 12.806 29.2339 15.515 28.714 18.1285C28.1942 20.7419 26.911 23.1426 25.0268 25.0268C23.1426 26.9111 20.7419 28.1942 18.1284 28.7141C15.515 29.2339 12.806 28.9671 10.3441 27.9474C7.88227 26.9277 5.7781 25.2008 4.29767 22.9852C2.81725 20.7696 2.02705 18.1647 2.02705 15.5C2.03107 11.928 3.45185 8.50346 5.97764 5.97766C8.50343 3.45187 11.928 2.0311 15.5 2.02707ZM15.5 0C12.4344 0 9.43764 0.909072 6.88867 2.61223C4.33971 4.3154 2.35302 6.73616 1.17986 9.56842C0.0067006 12.4007 -0.300231 15.5172 0.297841 18.5239C0.895912 21.5306 2.37214 24.2925 4.53986 26.4602C6.70757 28.6279 9.46941 30.1041 12.4761 30.7022C15.4828 31.3003 18.5993 30.9933 21.4316 29.8202C24.2639 28.647 26.6846 26.6603 28.3878 24.1114C30.0909 21.5624 31 18.5656 31 15.5C31 11.3892 29.367 7.44667 26.4602 4.53985C23.5534 1.63303 19.6109 0 15.5 0Z" fill="#C7C7C7"/>
</svg>
