<svg width="47" height="66" viewBox="0 0 47 66" fill="none" xmlns="http://www.w3.org/2000/svg">
<path fill-rule="evenodd" clip-rule="evenodd" d="M25.5 46.9161C37.5426 45.9012 47 35.805 47 23.5C47 10.5213 36.4787 0 23.5 0C10.5213 0 0 10.5213 0 23.5C0 36.1437 9.98515 46.4552 22.5 46.9791V66H25.5V46.9161Z" fill="#252525"/>
<mask id="path-2-outside-1_4041_84" maskUnits="userSpaceOnUse" x="9" y="6" width="30" height="33" fill="black">
<rect fill="white" x="9" y="6" width="30" height="33"/>
<path d="M19.4089 18L22.0789 14.025C21.3289 13.795 20.7489 13.415 20.3389 12.885C19.9289 12.345 19.7239 11.655 19.7239 10.815C19.7239 10.165 19.8339 9.62 20.0539 9.18C20.2839 8.74 20.5939 8.39 20.9839 8.13C21.3739 7.86 21.8239 7.67 22.3339 7.56C22.8539 7.44 23.4039 7.38 23.9839 7.38H28.1389V18H25.9939V14.385H24.2089L21.9439 18H19.4089ZM23.9989 12.465H25.9939V9.375H23.8189C23.4189 9.375 23.0739 9.425 22.7839 9.525C22.4939 9.625 22.2639 9.785 22.0939 10.005C21.9339 10.225 21.8539 10.52 21.8539 10.89C21.8539 11.31 21.9589 11.635 22.1689 11.865C22.3789 12.095 22.6489 12.255 22.9789 12.345C23.3189 12.425 23.6589 12.465 23.9989 12.465ZM13.4517 37V28.375H10.2117V26.38H18.8667V28.375H15.6117V37H13.4517ZM20.869 37V34.96C21.309 34.96 21.674 34.935 21.964 34.885C22.264 34.835 22.519 34.735 22.729 34.585C22.939 34.425 23.134 34.195 23.314 33.895L19.279 26.38H21.784L24.439 31.825L26.599 26.38H28.894L26.389 32.23C26.229 32.6 26.059 32.99 25.879 33.4C25.699 33.8 25.504 34.195 25.294 34.585C25.094 34.965 24.869 35.31 24.619 35.62C24.379 35.93 24.114 36.18 23.824 36.37C23.464 36.61 23.044 36.775 22.564 36.865C22.094 36.955 21.529 37 20.869 37ZM32.3774 37V28.375H29.1374V26.38H37.7924V28.375H34.5374V37H32.3774Z"/>
</mask>
<path d="M19.4089 18L22.0789 14.025C21.3289 13.795 20.7489 13.415 20.3389 12.885C19.9289 12.345 19.7239 11.655 19.7239 10.815C19.7239 10.165 19.8339 9.62 20.0539 9.18C20.2839 8.74 20.5939 8.39 20.9839 8.13C21.3739 7.86 21.8239 7.67 22.3339 7.56C22.8539 7.44 23.4039 7.38 23.9839 7.38H28.1389V18H25.9939V14.385H24.2089L21.9439 18H19.4089ZM23.9989 12.465H25.9939V9.375H23.8189C23.4189 9.375 23.0739 9.425 22.7839 9.525C22.4939 9.625 22.2639 9.785 22.0939 10.005C21.9339 10.225 21.8539 10.52 21.8539 10.89C21.8539 11.31 21.9589 11.635 22.1689 11.865C22.3789 12.095 22.6489 12.255 22.9789 12.345C23.3189 12.425 23.6589 12.465 23.9989 12.465ZM13.4517 37V28.375H10.2117V26.38H18.8667V28.375H15.6117V37H13.4517ZM20.869 37V34.96C21.309 34.96 21.674 34.935 21.964 34.885C22.264 34.835 22.519 34.735 22.729 34.585C22.939 34.425 23.134 34.195 23.314 33.895L19.279 26.38H21.784L24.439 31.825L26.599 26.38H28.894L26.389 32.23C26.229 32.6 26.059 32.99 25.879 33.4C25.699 33.8 25.504 34.195 25.294 34.585C25.094 34.965 24.869 35.31 24.619 35.62C24.379 35.93 24.114 36.18 23.824 36.37C23.464 36.61 23.044 36.775 22.564 36.865C22.094 36.955 21.529 37 20.869 37ZM32.3774 37V28.375H29.1374V26.38H37.7924V28.375H34.5374V37H32.3774Z" fill="white"/>
<path d="M28.0698 7.38H29.0698V6.38H28.0698V7.38ZM28.0698 18V19H29.0698V18H28.0698ZM25.8948 18H24.8948V19H25.8948V18ZM25.8948 14.415H26.8948V13.415H25.8948V14.415ZM24.4698 14.415V13.415H23.9486L23.6501 13.8422L24.4698 14.415ZM21.9648 18V19H22.486L22.7845 18.5728L21.9648 18ZM19.4448 18L18.6384 17.4086L17.4714 19H19.4448V18ZM22.2498 14.175L23.0562 14.7664L23.972 13.5175L22.457 13.1967L22.2498 14.175ZM20.3148 13.065L19.5165 13.6672L19.5224 13.6751L19.5285 13.6828L20.3148 13.065ZM19.6848 10.935L18.6849 10.9205L18.6849 10.9232L19.6848 10.935ZM20.9748 8.085L20.3956 7.26982L20.3868 7.27608L20.3781 7.28254L20.9748 8.085ZM22.2948 7.53L22.1024 6.54868L22.0987 6.54942L22.2948 7.53ZM25.8948 12.525V13.525H26.8948V12.525H25.8948ZM25.8948 9.315H26.8948V8.315H25.8948V9.315ZM23.1498 9.36L23.2364 10.3562L23.2552 10.3546L23.2738 10.3523L23.1498 9.36ZM22.5498 9.54L23.0419 10.4106L23.0494 10.4063L23.0568 10.4019L22.5498 9.54ZM22.0098 10.095L21.1305 9.61872L21.1268 9.62555L21.1232 9.63243L22.0098 10.095ZM22.0248 11.715L21.1745 12.2414V12.2414L22.0248 11.715ZM22.5048 12.195L23.0417 11.3513L23.024 11.3401L23.0058 11.3296L22.5048 12.195ZM23.2698 12.465L23.1332 13.4556L23.2698 12.465ZM27.0698 7.38V18H29.0698V7.38H27.0698ZM28.0698 17H25.8948V19H28.0698V17ZM26.8948 18V14.415H24.8948V18H26.8948ZM25.8948 13.415H24.4698V15.415H25.8948V13.415ZM23.6501 13.8422L21.1451 17.4272L22.7845 18.5728L25.2895 14.9878L23.6501 13.8422ZM21.9648 17H19.4448V19H21.9648V17ZM20.2512 18.5914L23.0562 14.7664L21.4434 13.5836L18.6384 17.4086L20.2512 18.5914ZM22.457 13.1967C21.784 13.0542 21.3664 12.7848 21.1011 12.4472L19.5285 13.6828C20.1432 14.4652 21.0156 14.9358 22.0426 15.1533L22.457 13.1967ZM21.1131 12.4628C20.8405 12.1014 20.6768 11.6191 20.6847 10.9468L18.6849 10.9232C18.6728 11.9509 18.9291 12.8886 19.5165 13.6672L21.1131 12.4628ZM20.6847 10.9495C20.6932 10.3609 20.7954 9.94495 20.9392 9.65721L19.1504 8.76279C18.8342 9.39505 18.6964 10.1291 18.6849 10.9205L20.6847 10.9495ZM20.9392 9.65721C21.1034 9.32894 21.3145 9.07856 21.5715 8.88746L20.3781 7.28254C19.8551 7.67143 19.4462 8.17106 19.1504 8.76279L20.9392 9.65721ZM21.554 8.90018C21.809 8.71902 22.1158 8.58561 22.4909 8.51058L22.0987 6.54942C21.4739 6.67439 20.9006 6.91098 20.3956 7.26982L21.554 8.90018ZM22.4872 8.51131C22.925 8.42547 23.4147 8.38 23.9598 8.38V6.38C23.3049 6.38 22.6846 6.43453 22.1024 6.54869L22.4872 8.51131ZM23.9598 8.38H28.0698V6.38H23.9598V8.38ZM26.8948 12.525V9.315H24.8948V12.525H26.8948ZM25.8948 8.315H23.9148V10.315H25.8948V8.315ZM23.9148 8.315C23.608 8.315 23.3113 8.33203 23.0258 8.36772L23.2738 10.3523C23.4683 10.328 23.6816 10.315 23.9148 10.315V8.315ZM23.0632 8.36376C22.7099 8.39447 22.3613 8.49071 22.0428 8.67807L23.0568 10.4019C23.0783 10.3893 23.1297 10.3655 23.2364 10.3562L23.0632 8.36376ZM22.0577 8.66944C21.6586 8.89505 21.3469 9.21928 21.1305 9.61872L22.8891 10.5713C22.9327 10.4907 22.981 10.4449 23.0419 10.4106L22.0577 8.66944ZM21.1232 9.63243C20.9055 10.0497 20.8298 10.518 20.8298 10.98H22.8298C22.8298 10.722 22.8741 10.6003 22.8964 10.5576L21.1232 9.63243ZM20.8298 10.98C20.8298 11.4205 20.9341 11.8529 21.1745 12.2414L22.8751 11.1886C22.8555 11.1571 22.8298 11.0995 22.8298 10.98H20.8298ZM21.1745 12.2414C21.3803 12.5737 21.6542 12.858 22.0038 13.0604L23.0058 11.3296C22.9754 11.312 22.9294 11.2763 22.8751 11.1886L21.1745 12.2414ZM21.9679 13.0387C22.3233 13.2648 22.7183 13.3984 23.1332 13.4556L23.4064 11.4744C23.2413 11.4516 23.1263 11.4052 23.0417 11.3513L21.9679 13.0387ZM23.1332 13.4556C23.468 13.5018 23.8037 13.525 24.1398 13.525V11.525C23.8959 11.525 23.6516 11.5082 23.4064 11.4744L23.1332 13.4556ZM24.1398 13.525H25.8948V11.525H24.1398V13.525ZM10.2033 28.315H9.20328V29.315H10.2033V28.315ZM10.2033 26.38V25.38H9.20328V26.38H10.2033ZM19.0383 26.38H20.0383V25.38H19.0383V26.38ZM19.0383 28.315V29.315H20.0383V28.315H19.0383ZM15.7083 28.315V27.315H14.7083V28.315H15.7083ZM15.7083 37V38H16.7083V37H15.7083ZM13.5333 37H12.5333V38H13.5333V37ZM13.5333 28.315H14.5333V27.315H13.5333V28.315ZM11.2033 28.315V26.38H9.20328V28.315H11.2033ZM10.2033 27.38H19.0383V25.38H10.2033V27.38ZM18.0383 26.38V28.315H20.0383V26.38H18.0383ZM19.0383 27.315H15.7083V29.315H19.0383V27.315ZM14.7083 28.315V37H16.7083V28.315H14.7083ZM15.7083 36H13.5333V38H15.7083V36ZM14.5333 37V28.315H12.5333V37H14.5333ZM13.5333 27.315H10.2033V29.315H13.5333V27.315ZM26.4836 26.38V25.38H25.7966L25.5501 26.0212L26.4836 26.38ZM28.9286 26.38L29.8485 26.7721L30.4419 25.38H28.9286V26.38ZM26.1536 32.89L25.2336 32.4979L25.2326 32.5004L26.1536 32.89ZM25.7936 33.715L24.881 33.3059L24.8751 33.3192L24.8695 33.3326L25.7936 33.715ZM25.3886 34.585L26.2768 35.0444L25.3886 34.585ZM24.8936 35.425L24.0615 34.8703L24.0566 34.8778L24.8936 35.425ZM24.3236 36.115L24.9983 36.853L25.0058 36.8462L25.0132 36.8391L24.3236 36.115ZM23.1536 36.82L23.4698 37.7688L23.4829 37.7642L23.1536 36.82ZM21.6536 37L21.688 36.0006L21.6708 36H21.6536V37ZM20.9486 37H19.9486V38H20.9486V37ZM20.9486 35.08V34.08H19.9486V35.08H20.9486ZM21.8186 35.065L21.874 36.0635L21.9016 36.0619L21.929 36.0589L21.8186 35.065ZM22.3586 34.915L21.9524 34.0012L22.3586 34.915ZM22.8836 34.555L22.2192 33.8076L22.2086 33.817L22.1982 33.8268L22.8836 34.555ZM23.3786 33.865L24.273 34.3122L24.5061 33.8459L24.2573 33.3878L23.3786 33.865ZM19.3136 26.38V25.38H17.6325L18.4348 26.8572L19.3136 26.38ZM21.8336 26.38L22.7238 25.9246L22.4452 25.38H21.8336V26.38ZM24.4886 31.57L23.5983 32.0254L24.6183 34.0194L25.422 31.9288L24.4886 31.57ZM26.4836 27.38H28.9286V25.38H26.4836V27.38ZM28.0086 25.9879L25.2336 32.4979L27.0735 33.2821L29.8485 26.7721L28.0086 25.9879ZM25.2326 32.5004C25.1257 32.7531 25.0085 33.0216 24.881 33.3059L26.7061 34.1241C26.8386 33.8284 26.9615 33.5469 27.0745 33.2796L25.2326 32.5004ZM24.8695 33.3326C24.7608 33.5954 24.6378 33.8597 24.5003 34.1256L26.2768 35.0444C26.4393 34.7303 26.5863 34.4146 26.7176 34.0974L24.8695 33.3326ZM24.5003 34.1256C24.3672 34.383 24.2209 34.6312 24.0615 34.8703L25.7256 35.9797C25.9262 35.6788 26.1099 35.367 26.2768 35.0444L24.5003 34.1256ZM24.0566 34.8778C23.9257 35.0779 23.7843 35.2476 23.6339 35.3909L25.0132 36.8391C25.2828 36.5824 25.5214 36.2921 25.7305 35.9722L24.0566 34.8778ZM23.6488 35.377C23.3945 35.6094 23.121 35.7723 22.8242 35.8758L23.4829 37.7642C24.0461 37.5677 24.5526 37.2606 24.9983 36.853L23.6488 35.377ZM22.8373 35.8713C22.5593 35.964 22.184 36.0177 21.688 36.0006L21.6191 37.9994C22.2831 38.0223 22.9078 37.956 23.4698 37.7687L22.8373 35.8713ZM21.6536 36H20.9486V38H21.6536V36ZM21.9486 37V35.08H19.9486V37H21.9486ZM20.9486 36.08H21.2936V34.08H20.9486V36.08ZM21.2936 36.08C21.4831 36.08 21.6767 36.0744 21.874 36.0635L21.7631 34.0665C21.6005 34.0756 21.444 34.08 21.2936 34.08V36.08ZM21.929 36.0589C22.2196 36.0266 22.499 35.9469 22.7647 35.8288L21.9524 34.0012C21.8581 34.0431 21.7775 34.0634 21.7081 34.0711L21.929 36.0589ZM22.7647 35.8288C23.0646 35.6955 23.3317 35.5064 23.5689 35.2832L22.1982 33.8268C22.0954 33.9236 22.0125 33.9745 21.9524 34.0012L22.7647 35.8288ZM23.5479 35.3024C23.8524 35.0317 24.0868 34.6845 24.273 34.3122L22.4841 33.4178C22.3703 33.6455 22.2747 33.7583 22.2192 33.8076L23.5479 35.3024ZM24.2573 33.3878L20.1923 25.9028L18.4348 26.8572L22.4998 34.3422L24.2573 33.3878ZM19.3136 27.38H21.8336V25.38H19.3136V27.38ZM20.9433 26.8354L23.5983 32.0254L25.3788 31.1146L22.7238 25.9246L20.9433 26.8354ZM25.422 31.9288L27.417 26.7388L25.5501 26.0212L23.5551 31.2112L25.422 31.9288ZM28.9679 28.315H27.9679V29.315H28.9679V28.315ZM28.9679 26.38V25.38H27.9679V26.38H28.9679ZM37.8029 26.38H38.8029V25.38H37.8029V26.38ZM37.8029 28.315V29.315H38.8029V28.315H37.8029ZM34.4729 28.315V27.315H33.4729V28.315H34.4729ZM34.4729 37V38H35.4729V37H34.4729ZM32.2979 37H31.2979V38H32.2979V37ZM32.2979 28.315H33.2979V27.315H32.2979V28.315ZM29.9679 28.315V26.38H27.9679V28.315H29.9679ZM28.9679 27.38H37.8029V25.38H28.9679V27.38ZM36.8029 26.38V28.315H38.8029V26.38H36.8029ZM37.8029 27.315H34.4729V29.315H37.8029V27.315ZM33.4729 28.315V37H35.4729V28.315H33.4729ZM34.4729 36H32.2979V38H34.4729V36ZM33.2979 37V28.315H31.2979V37H33.2979ZM32.2979 27.315H28.9679V29.315H32.2979V27.315Z" fill="#252525" mask="url(#path-2-outside-1_4041_84)"/>
</svg>
