<svg width="59" height="26" viewBox="0 0 59 26" fill="none" xmlns="http://www.w3.org/2000/svg">
<rect width="59" height="26" rx="13" fill="white"/>
<path d="M16.8098 3.58541C16.8697 3.40115 17.1303 3.40115 17.1902 3.58541L19.2002 9.77163C19.227 9.85404 19.3038 9.90983 19.3904 9.90983H25.895C26.0888 9.90983 26.1693 10.1578 26.0126 10.2716L20.7503 14.0949C20.6802 14.1459 20.6508 14.2361 20.6776 14.3185L22.6876 20.5048C22.7475 20.689 22.5366 20.8422 22.3799 20.7284L17.1176 16.9051C17.0475 16.8541 16.9525 16.8541 16.8824 16.9051L11.6201 20.7284C11.4634 20.8422 11.2525 20.689 11.3124 20.5048L13.3224 14.3185C13.3492 14.2361 13.3198 14.1459 13.2497 14.0949L7.98741 10.2716C7.83067 10.1578 7.91123 9.90983 8.10497 9.90983H14.6096C14.6962 9.90983 14.773 9.85404 14.7998 9.77163L16.8098 3.58541Z" fill="#252525"/>
<path d="M35.0069 19V16.945H29.3669V15.745L34.4669 8.395H36.5819V15.505H37.8119V16.945H36.5819V19H35.0069ZM31.2419 15.505H35.0069V9.97L31.2419 15.505ZM39.9181 20.98L39.4831 20.335C39.6231 20.245 39.7631 20.125 39.9031 19.975C40.0531 19.835 40.1831 19.68 40.2931 19.51C40.4031 19.35 40.4831 19.195 40.5331 19.045C40.2531 19.025 40.0231 18.93 39.8431 18.76C39.6631 18.59 39.5731 18.36 39.5731 18.07C39.5831 17.76 39.6881 17.52 39.8881 17.35C40.0981 17.17 40.3331 17.08 40.5931 17.08C40.9331 17.08 41.2031 17.205 41.4031 17.455C41.6031 17.695 41.7031 18.025 41.7031 18.445C41.7031 18.805 41.6181 19.16 41.4481 19.51C41.2781 19.86 41.0581 20.165 40.7881 20.425C40.5181 20.685 40.2281 20.87 39.9181 20.98ZM47.3193 19.12C46.8293 19.12 46.3543 19.065 45.8943 18.955C45.4343 18.845 45.0193 18.67 44.6493 18.43C44.2893 18.18 43.9993 17.855 43.7793 17.455C43.5593 17.055 43.4493 16.565 43.4493 15.985C43.4493 15.585 43.5143 15.225 43.6443 14.905C43.7743 14.575 43.9643 14.29 44.2143 14.05C44.4743 13.81 44.7743 13.62 45.1143 13.48C44.7643 13.29 44.4893 13.065 44.2893 12.805C44.0893 12.535 43.9543 12.25 43.8843 11.95C43.8143 11.65 43.7793 11.365 43.7793 11.095C43.7793 10.585 43.8793 10.155 44.0793 9.805C44.2793 9.445 44.5493 9.155 44.8893 8.935C45.2293 8.705 45.6093 8.54 46.0293 8.44C46.4493 8.33 46.8843 8.275 47.3343 8.275C47.7743 8.275 48.2043 8.33 48.6243 8.44C49.0443 8.54 49.4243 8.705 49.7643 8.935C50.1043 9.165 50.3743 9.46 50.5743 9.82C50.7743 10.18 50.8743 10.615 50.8743 11.125C50.8743 11.385 50.8343 11.66 50.7543 11.95C50.6843 12.24 50.5493 12.515 50.3493 12.775C50.1493 13.035 49.8693 13.255 49.5093 13.435C49.8693 13.575 50.1743 13.77 50.4243 14.02C50.6843 14.27 50.8793 14.56 51.0093 14.89C51.1393 15.22 51.2043 15.59 51.2043 16C51.2043 16.57 51.0943 17.055 50.8743 17.455C50.6543 17.855 50.3543 18.18 49.9743 18.43C49.6043 18.67 49.1893 18.845 48.7293 18.955C48.2793 19.065 47.8093 19.12 47.3193 19.12ZM47.3193 17.68C47.5593 17.68 47.8093 17.655 48.0693 17.605C48.3293 17.555 48.5743 17.47 48.8043 17.35C49.0343 17.22 49.2193 17.045 49.3593 16.825C49.5093 16.595 49.5843 16.31 49.5843 15.97C49.5843 15.55 49.4793 15.22 49.2693 14.98C49.0593 14.73 48.7793 14.55 48.4293 14.44C48.0893 14.32 47.7193 14.26 47.3193 14.26C46.9293 14.26 46.5593 14.32 46.2093 14.44C45.8693 14.55 45.5893 14.73 45.3693 14.98C45.1593 15.22 45.0543 15.55 45.0543 15.97C45.0543 16.31 45.1243 16.595 45.2643 16.825C45.4143 17.045 45.6043 17.22 45.8343 17.35C46.0743 17.47 46.3243 17.555 46.5843 17.605C46.8443 17.655 47.0893 17.68 47.3193 17.68ZM47.3343 12.94C47.6943 12.94 48.0143 12.88 48.2943 12.76C48.5843 12.64 48.8193 12.465 48.9993 12.235C49.1793 11.995 49.2693 11.705 49.2693 11.365C49.2793 10.965 49.1943 10.645 49.0143 10.405C48.8343 10.155 48.5943 9.975 48.2943 9.865C48.0043 9.745 47.6793 9.685 47.3193 9.685C46.9493 9.685 46.6143 9.745 46.3143 9.865C46.0243 9.975 45.7943 10.15 45.6243 10.39C45.4643 10.63 45.3843 10.935 45.3843 11.305C45.3843 11.675 45.4743 11.985 45.6543 12.235C45.8343 12.475 46.0693 12.655 46.3593 12.775C46.6593 12.885 46.9843 12.94 47.3343 12.94Z" fill="#252525"/>
</svg>
