<svg width="14" height="14" viewBox="0 0 14 14" fill="none" xmlns="http://www.w3.org/2000/svg">
<path d="M6.99984 1.16675C3.78334 1.16675 1.1665 3.78358 1.1665 7.00008C1.1665 10.2166 3.78334 12.8334 6.99984 12.8334C10.2163 12.8334 12.8332 10.2166 12.8332 7.00008C12.8332 3.78358 10.2163 1.16675 6.99984 1.16675ZM6.99984 11.6667C4.42675 11.6667 2.33317 9.57316 2.33317 7.00008C2.33317 4.427 4.42675 2.33341 6.99984 2.33341C9.57292 2.33341 11.6665 4.427 11.6665 7.00008C11.6665 9.57316 9.57292 11.6667 6.99984 11.6667Z" fill="#252525"/>
<path d="M7.58317 4.08325H6.4165V7.24142L8.33742 9.16233L9.16225 8.3375L7.58317 6.75842V4.08325Z" fill="#252525"/>
</svg>
