<svg width="44" height="44" viewBox="0 0 44 44" fill="none" xmlns="http://www.w3.org/2000/svg">
<circle cx="22" cy="22" r="22" fill="#F7F7F7"/>
<path d="M11.9165 27.5457H16.9582" stroke="#252525" stroke-miterlimit="10" stroke-linecap="round" stroke-linejoin="round"/>
<path d="M32.0832 16.4541H27.0415" stroke="#252525" stroke-miterlimit="10" stroke-linecap="round" stroke-linejoin="round"/>
<path d="M23.0083 27.5457H32.0833" stroke="#252525" stroke-miterlimit="10" stroke-linecap="round" stroke-linejoin="round"/>
<path d="M20.9915 16.4541H11.9165" stroke="#252525" stroke-miterlimit="10" stroke-linecap="round" stroke-linejoin="round"/>
<path d="M19.983 30.4697C18.3124 30.4697 16.958 29.1154 16.958 27.4447C16.958 25.774 18.3124 24.4197 19.983 24.4197C21.6537 24.4197 23.008 25.774 23.008 27.4447C23.008 29.1154 21.6537 30.4697 19.983 30.4697Z" stroke="#252525" stroke-miterlimit="10" stroke-linecap="round" stroke-linejoin="round"/>
<path d="M24.0167 19.3781C25.6874 19.3781 27.0417 18.0238 27.0417 16.3531C27.0417 14.6825 25.6874 13.3281 24.0167 13.3281C22.346 13.3281 20.9917 14.6825 20.9917 16.3531C20.9917 18.0238 22.346 19.3781 24.0167 19.3781Z" stroke="#252525" stroke-miterlimit="10" stroke-linecap="round" stroke-linejoin="round"/>
</svg>
