<svg width="24" height="24" viewBox="0 0 24 24" fill="none" xmlns="http://www.w3.org/2000/svg">
<g clip-path="url(#clip0_4147_757)">
<path d="M14.397 13.0219V13.635H15.9945V22.2499C15.9945 23.2163 16.7779 23.9996 17.7442 23.9996H17.7443C18.7106 23.9996 19.4939 23.2163 19.4939 22.2499V0.000406265C16.217 3.54498 14.397 8.19472 14.397 13.0219Z" fill="#252525"/>
<path d="M9.37685 0V7.95005H8.37686V0H7.18028V7.95005H6.18029V0H4.50586V7.04699C4.50586 8.33045 5.12657 9.53459 6.17191 10.2792V22.3934C6.17191 23.2807 6.89123 24 7.77854 24C8.66591 24 9.38523 23.2807 9.38523 22.3934V10.2792C10.4305 9.53454 11.0512 8.33045 11.0512 7.04699V0H9.37685Z" fill="#252525"/>
</g>
<defs>
<clipPath id="clip0_4147_757">
<rect width="24" height="24" fill="white"/>
</clipPath>
</defs>
</svg>
